# xmcd CD database file generated by Grip 3.2.0
# 
# Track frame offsets:
#       182
#       32720
#       68457
#       81132
#       96107
#       100265
#       113907
#       123770
#       126595
#       138845
#       156420
#       170692
#       180487
#       195167
#       207270
#       231552
#       243745
#       266800
#       278102
#       285932
# 
# Disc length: 3858 seconds
# 
# Revision: 11
# Processed by: cddbd v1.5.2PL0 Copyright (c) Steve Scherf et al.
# Submitted via: Grip 3.2.0
# 
DISCID=1e0f1014
DTITLE=Andreas Vollenweider - The Trilogy [CD 2)
DYEAR=1990
DGENRE=New Age
TTITLE0=Behind the Gardens - Behind the Wall - Under the Tree
TTITLE1=Pyramid - In the Wood - In the Bright Light
TTITLE2=Micro-Macro
TTITLE3=Skin and Skin
TTITLE4=Moonlight, Wrapped Around Us
TTITLE5=Lion and Sheep
TTITLE6=Sunday-
TTITLE7=Afternoon
TTITLE8=Hands and Clouds
TTITLE9=Caverna Magica
TTITLE10=Mandragora
TTITLE11=Lunar Pond
TTITLE12=Schajah Saretosh
TTITLE13=Sena Stanjéna?
TTITLE14=Belladonna
TTITLE15=Angóh!
TTITLE16=Huiziopochtli
TTITLE17=Con Chiglia
TTITLE18=Geastrum Coronatum
TTITLE19=La Paix Verde
EXTD=YEAR: 1990
EXTT0=
EXTT1=
EXTT2=
EXTT3=
EXTT4=
EXTT5=
EXTT6=
EXTT7=
EXTT8=
EXTT9=
EXTT10=
EXTT11=
EXTT12=
EXTT13=
EXTT14=
EXTT15=
EXTT16=
EXTT17=
EXTT18=
EXTT19=
PLAYORDER=
